<svg xmlns="http://www.w3.org/2000/svg" viewBox="0 0 1100 1500" fill="none">
  <defs>
    <linearGradient id="bg" x1="550" y1="0" x2="550" y2="1500" gradientUnits="userSpaceOnUse">
      <stop stop-color="#EDF2FF"/>
      <stop offset=".4" stop-color="#D8D9FF"/>
      <stop offset="1" stop-color="#B6B8F8"/>
    </linearGradient>
  </defs>
  <rect width="1100" height="1500" fill="url(#bg)"/>
  <rect x="90" y="120" width="280" height="1200" rx="24" fill="#A3AED0"/>
  <rect x="405" y="220" width="285" height="1080" rx="24" fill="#7D89B8"/>
  <rect x="725" y="80" width="285" height="1280" rx="24" fill="#596596"/>
  <g opacity=".8">
    <rect x="130" y="180" width="200" height="46" rx="10" fill="#EAF0FF"/>
    <rect x="130" y="285" width="200" height="46" rx="10" fill="#EAF0FF"/>
    <rect x="130" y="390" width="200" height="46" rx="10" fill="#EAF0FF"/>
    <rect x="130" y="495" width="200" height="46" rx="10" fill="#EAF0FF"/>
    <rect x="130" y="600" width="200" height="46" rx="10" fill="#EAF0FF"/>
    <rect x="130" y="705" width="200" height="46" rx="10" fill="#EAF0FF"/>
  </g>
  <g opacity=".7">
    <rect x="445" y="280" width="205" height="52" rx="10" fill="#F6D6FF"/>
    <rect x="445" y="410" width="205" height="52" rx="10" fill="#F6D6FF"/>
    <rect x="445" y="540" width="205" height="52" rx="10" fill="#F6D6FF"/>
    <rect x="445" y="670" width="205" height="52" rx="10" fill="#F6D6FF"/>
    <rect x="445" y="800" width="205" height="52" rx="10" fill="#F6D6FF"/>
    <rect x="445" y="930" width="205" height="52" rx="10" fill="#F6D6FF"/>
  </g>
  <path d="M760 260L980 1160" stroke="#FFDFA5" stroke-width="18" stroke-linecap="round" opacity=".75"/>
  <path d="M780 420L1000 1320" stroke="#FFF1CC" stroke-width="10" stroke-linecap="round" opacity=".85"/>
</svg>
