<svg xmlns="http://www.w3.org/2000/svg" viewBox="0 0 1600 900" fill="none">
  <defs>
    <linearGradient id="g3" x1="180" y1="110" x2="1460" y2="760" gradientUnits="userSpaceOnUse">
      <stop stop-color="#FFF3E7"/>
      <stop offset=".5" stop-color="#FDE2E6"/>
      <stop offset="1" stop-color="#E0E6FF"/>
    </linearGradient>
  </defs>
  <rect width="1600" height="900" rx="36" fill="url(#g3)"/>
  <rect x="160" y="150" width="1280" height="600" rx="34" fill="#FFFFFF" opacity=".84"/>
  <rect x="244" y="238" width="210" height="38" rx="19" fill="#FFE0C7"/>
  <rect x="244" y="314" width="610" height="78" rx="24" fill="#FF9B7D"/>
  <rect x="244" y="436" width="530" height="28" rx="14" fill="#F1DDE2"/>
  <rect x="244" y="494" width="440" height="28" rx="14" fill="#F1DDE2"/>
  <rect x="244" y="622" width="210" height="60" rx="30" fill="#6D5EFC"/>
  <rect x="954" y="260" width="286" height="84" rx="22" fill="#F8D8DF"/>
  <rect x="954" y="386" width="286" height="84" rx="22" fill="#DEE5FF"/>
  <rect x="954" y="512" width="286" height="84" rx="22" fill="#DFF3EA"/>
  <path d="M922 302H954" stroke="#A38EFF" stroke-width="16" stroke-linecap="round"/>
  <path d="M922 428H954" stroke="#A38EFF" stroke-width="16" stroke-linecap="round"/>
  <path d="M922 554H954" stroke="#A38EFF" stroke-width="16" stroke-linecap="round"/>
</svg>
